<svg width="100" height="96" viewBox="0 0 100 96" fill="none" xmlns="http://www.w3.org/2000/svg">
<path d="M0 63.8571C0 40.1878 19.1878 21 42.8571 21H57.1429C80.8122 21 100 40.1878 100 63.8571V63.8571C100 81.6092 85.6092 96 67.8571 96H32.1429C14.3908 96 0 81.6092 0 63.8571V63.8571Z" fill="white"/>
<path d="M13 76C13 64.402 22.402 55 34 55H67C78.598 55 88 64.402 88 76V76C88 83.732 81.732 90 74 90H27C19.268 90 13 83.732 13 76V76Z" fill="#161616"/>
<ellipse cx="64" cy="73" rx="6" ry="10" fill="white"/>
<ellipse cx="36" cy="73" rx="6" ry="10" fill="white"/>
<path d="M9.07107 38.213C5.16582 34.3078 5.16582 27.9761 9.07107 24.0709V24.0709C12.9763 20.1657 19.308 20.1657 23.2132 24.0709L25.5702 26.4279C28.1737 29.0314 28.1737 33.2525 25.5702 35.856L20.8562 40.5701C18.2527 43.1736 14.0316 43.1736 11.4281 40.5701L9.07107 38.213Z" fill="white"/>
<path d="M77.0711 24.0711C80.9763 20.1658 87.308 20.1658 91.2132 24.0711V24.0711C95.1185 27.9763 95.1185 34.308 91.2132 38.2132L88.8562 40.5702C86.2527 43.1737 82.0316 43.1737 79.4281 40.5702L74.7141 35.8562C72.1106 33.2527 72.1106 29.0316 74.7141 26.4281L77.0711 24.0711Z" fill="white"/>
<path d="M50 0L58.6603 22.5H41.3397L50 0Z" fill="white"/>
</svg>
