<svg width="54" height="10" viewBox="0 0 54 10" fill="none" xmlns="http://www.w3.org/2000/svg">
<path d="M0.0170455 9L1.46591 0.272727H5.23295C5.88068 0.272727 6.42614 0.400568 6.86932 0.65625C7.3125 0.911932 7.63068 1.27131 7.82386 1.73438C8.01705 2.19744 8.0625 2.73864 7.96023 3.35795C7.85795 3.98864 7.63068 4.53267 7.27841 4.99006C6.92898 5.4446 6.48295 5.79545 5.94034 6.04261C5.40057 6.28693 4.79545 6.40909 4.125 6.40909H1.875L2.18182 4.56818H3.95455C4.23864 4.56818 4.48864 4.51989 4.70455 4.4233C4.92045 4.32386 5.09517 4.18466 5.22869 4.00568C5.36222 3.82386 5.44886 3.60795 5.48864 3.35795C5.52841 3.10795 5.50994 2.89489 5.43324 2.71875C5.35938 2.53977 5.23153 2.40341 5.04972 2.30966C4.87074 2.21307 4.64205 2.16477 4.36364 2.16477H3.52841L2.38636 9H0.0170455ZM6.93205 9L8.38091 0.272727H12.148C12.7957 0.272727 13.3426 0.390625 13.7886 0.62642C14.2346 0.862216 14.5556 1.2017 14.7516 1.64489C14.9477 2.08807 14.9945 2.61932 14.8923 3.23864C14.79 3.86364 14.5641 4.39062 14.2147 4.8196C13.8681 5.24574 13.4264 5.5696 12.8894 5.79119C12.3553 6.00994 11.7559 6.11932 11.0911 6.11932H8.84114L9.14795 4.27841H10.9207C11.1991 4.27841 11.4434 4.24432 11.6536 4.17614C11.8639 4.10511 12.0343 3.99432 12.165 3.84375C12.2957 3.69034 12.3809 3.48864 12.4207 3.23864C12.4605 2.98864 12.4406 2.78551 12.361 2.62926C12.2815 2.47017 12.1494 2.35369 11.9647 2.27983C11.7801 2.20312 11.5514 2.16477 11.2786 2.16477H10.4434L9.30136 9H6.93205ZM12.7105 4.99432L14.2275 9H11.6536L10.1877 4.99432H12.7105ZM23.2583 4.78977C23.0992 5.73864 22.7838 6.53409 22.3122 7.17614C21.8407 7.81818 21.2682 8.30256 20.5949 8.62926C19.9216 8.95597 19.2014 9.11932 18.4344 9.11932C17.6162 9.11932 16.906 8.94176 16.3037 8.58665C15.7014 8.23153 15.2625 7.71165 14.987 7.02699C14.7114 6.34233 14.656 5.50568 14.8208 4.51705C14.9742 3.56818 15.2867 2.76989 15.7583 2.12216C16.2299 1.47443 16.8051 0.984375 17.4841 0.651989C18.1631 0.319602 18.8889 0.153409 19.6617 0.153409C20.4742 0.153409 21.1801 0.332386 21.7796 0.690341C22.3818 1.0483 22.8193 1.57244 23.0921 2.26278C23.3676 2.95312 23.423 3.79545 23.2583 4.78977ZM20.8719 4.51705C20.9514 4.01705 20.9571 3.59659 20.8889 3.25568C20.8208 2.91193 20.6773 2.65341 20.4586 2.48011C20.2398 2.30398 19.9458 2.21591 19.5764 2.21591C19.156 2.21591 18.7838 2.31818 18.46 2.52273C18.1361 2.72727 17.8676 3.02131 17.6546 3.40483C17.4415 3.78835 17.2924 4.25 17.2071 4.78977C17.1162 5.29545 17.1077 5.71591 17.1816 6.05114C17.2583 6.38636 17.4088 6.63778 17.6333 6.8054C17.8605 6.97301 18.156 7.05682 18.5196 7.05682C18.9344 7.05682 19.3009 6.95739 19.6191 6.75852C19.9401 6.55966 20.2057 6.27131 20.4159 5.89347C20.629 5.51562 20.781 5.05682 20.8719 4.51705ZM25.9961 0.272727L27.0017 2.8125H27.0699L28.9449 0.272727H31.6892L28.3654 4.63636L30.3427 9H27.7006L26.6438 6.40909H26.5756L24.6665 9H21.9052L25.3142 4.63636L23.4392 0.272727H25.9961ZM31.393 0.272727H34.035L35.143 3.81818H35.2282L37.5123 0.272727H40.1543L35.9611 6.25568L35.5009 9H33.1486L33.6089 6.25568L31.393 0.272727ZM38.5178 9L39.9667 0.272727H46.1031L45.7792 2.18182H42.0121L41.7735 3.68182H45.1656L44.8417 5.59091H41.4496L40.8871 9H38.5178ZM48.3838 0.272727L46.935 9H44.5656L46.0145 0.272727H48.3838ZM47.0978 9L48.5467 0.272727H50.916L49.791 7.09091H53.3194L52.9956 9H47.0978Z" fill="black"/>
</svg>
